<svg fill="none" height="480" viewBox="-50 0 876 480" width="876" xmlns="http://www.w3.org/2000/svg" xmlns:xlink="http://www.w3.org/1999/xlink"><clipPath id="a"><path d="m286.731 115.188h11.5831v11.5831h-11.5831z"/></clipPath><clipPath id="b"><path d="m42.5117 257.688c0-2.192 1.7771-3.969 3.9693-3.969h309.061c2.193 0 3.97 1.777 3.97 3.969v128.061c0 2.193-1.777 3.97-3.97 3.97h-309.061c-2.1922 0-3.9693-1.777-3.9693-3.97z"/></clipPath><path d="m1385.16-59.9863c22.93.5808 41.34 19.3523 41.34 42.4238v282.5625h276.71l1.1.014c22.93.581 41.34 19.352 41.34 42.424v509.562h-1125.562c-23.072 0-41.843-18.411-42.424-41.343l-.014-1.095v-256.562h-276.712l-1.095-.014c-22.568-.571-40.758-18.761-41.329-41.329l-.014-1.095v-31.562h-238c-11.04569 0-20-8.954-20-20v-352c0-11.0457 8.95431-20 20-20h238v-69.5625c0-23.4375 19-42.4373 42.438-42.4375h1083.122z" fill="#1b1b1b"/><path d="m273.044 100.328h310.366c1.916 0 3.47 1.554 3.47 3.47v187.045c0 1.916-1.554 3.469-3.47 3.469h-310.366c-1.916 0-3.47-1.553-3.47-3.469v-187.045c0-1.916 1.554-3.47 3.47-3.47z" fill="#232323" stroke="#3d3d3d"/><rect fill="#701ffc" height="19.8568" rx="4.96419" width="19.8568" x="282.594" y="111.047"/><path d="m270.08 288.188h316.29v3.429c0 1.657-1.343 3-3 3h-310.29c-1.657 0-3-1.343-3-3z" fill="#fa4edf" opacity=".6"/><path d="m46.4814 254.219h309.0606c1.916 0 3.47 1.553 3.47 3.469v128.061c0 1.916-1.554 3.47-3.47 3.47h-309.0606c-1.916 0-3.4697-1.554-3.4697-3.47v-128.061c0-1.916 1.5537-3.469 3.4697-3.469z" stroke="#3d3d3d"/></svg>