<svg fill="none" height="476" viewBox="0 0 591 476" width="591" xmlns="http://www.w3.org/2000/svg"><path d="m1.30078 1.29688h587.97v472.934h-587.97z" stroke="#313131" stroke-width="2.6011"/><path d="m308.405 122.733v-13.464h3.08v1.318h-1.652v10.828h1.652v1.318zm9.069-1.397-3.176-10.431-.286-.953v-.063h1.763l.031.063.254.953 1.874 6.589c.169.603.291 1.1.365 1.492s.111.588.111.588.037-.196.111-.588c.085-.392.207-.889.366-1.492l1.762-6.335.063-.254.254-.953.016-.063h1.921l.255 1.016 1.825 6.589c.149.614.26 1.116.334 1.508.084.392.127.587.127.587s.037-.195.111-.587c.085-.392.206-.894.365-1.508l1.858-6.589.254-.953.032-.063h1.746v.063l-.302.953-3.127 10.431h-1.89l-2.048-7.192c-.169-.604-.296-1.101-.381-1.493-.074-.391-.111-.587-.111-.587s-.042.196-.127.587c-.085.392-.217.889-.397 1.493l-2.08 7.192zm13.127 0v-11.447h7.51v1.444h-5.859v3.223h4.7v1.461h-4.7v5.319zm6.899-3.461v-1.35h4.874v1.35z" fill="#fdfdf8"/><rect fill="#f9d0de" height="15.0011" rx="7.50055" width="259.957" x="137.172" y="159.391"/><rect fill="#ff22fc" height="15.0011" rx="7.50055" width="140.758" x="137.172" y="188.359"/><rect fill="#64fefb" height="15.0011" rx="7.50055" width="175.307" x="137.172" y="217.32"/><path d="m382.049 117.258h34.504c2.193 0 3.97 1.777 3.97 3.969v126.459c0 2.192-1.777 3.969-3.97 3.969h-294.377c-2.192 0-3.969-1.777-3.969-3.969v-126.459c0-2.192 1.777-3.969 3.969-3.969h177.085" stroke="#4d4d4d" stroke-width="1.98464"/><path d="m199.48 339.633h229.117 104.1c2.192 0 3.969-1.777 3.969-3.969v-33.189c0-2.192-1.777-3.969-3.969-3.969h-333.217c-2.193 0-3.97 1.777-3.97 3.969v33.188c0 2.193 1.777 3.97 3.97 3.97z" stroke="#4d4d4d" stroke-width="1.98464"/><path d="m430.33 213.617h18.23v18.23h-18.23z" fill="#b4fdf9" transform="matrix(0 1 -1 0 643.947 -216.713)"/><path d="m416.953 223.126.742-.756 2.626 2.639v-6.983h1.169v6.97l2.639-2.612.728.756-3.959 3.931z" fill="#1b1b1b"/><rect fill="#fa4edf" height="15.3731" rx="3.08019" transform="matrix(1 0 0 -1 236.812 326.75)" width="15.3731"/><rect fill="#fa4edf" height="15.3731" rx="3.08019" transform="matrix(1 0 0 -1 311.371 326.75)" width="15.3731"/><rect height="14.141" rx="2.46415" stroke="#ffcc02" stroke-width="1.23208" width="14.141" x="212.579" y="311.999"/><path d="m289.602 311.999h9.212c1.361 0 2.464 1.103 2.464 2.464v9.213c0 1.361-1.103 2.464-2.464 2.464h-9.212c-1.361 0-2.464-1.103-2.464-2.464v-9.213c0-1.361 1.103-2.464 2.464-2.464z" stroke="#ffcc02" stroke-width="1.23208"/><rect fill="#fa4edf" fill-opacity=".48" height="15.3731" rx="3.08019" transform="matrix(1 0 0 -1 261.672 326.766)" width="15.3731"/><rect fill="#fa4edf" fill-opacity=".48" height="15.3731" rx="3.08019" transform="matrix(1 0 0 -1 336.221 326.766)" width="15.3731"/><g stroke="#4d4d4d" stroke-width="1.98464"><path d="m217.22 117.364v-22.2262c0-2.1921-1.777-3.9692-3.969-3.9692h-40.42c-2.193 0-3.97-1.7771-3.97-3.9693v-85.19149"/><path d="m221.242 252.867v43.825"/><path d="m496.906 339.617v133.32"/></g></svg>