<svg fill="none" height="366" viewBox="0 0 1440 366" width="1440" xmlns="http://www.w3.org/2000/svg"><path d="m790.892-76.5986c-17.267.4372-31.129 14.5717-31.129 31.9433v103.9365l.009.8243c.431 16.9925 14.127 30.6887 31.12 31.1191l.824.0098h159.192c6.773 0 11.365 7.5394 11.251 14.3106-.003.182-.005.365-.005.548v35.896c0 17.648 14.307 31.954 31.954 31.954h118.092c4.97 0 9 4.03 9 9v149.984l.01.824c.44 17.267 14.57 31.129 31.94 31.129h371.53c17.37 0 31.5-13.863 31.94-31.129l.01-.824v-149.984c0-4.97 4.03-9 9-9h10.6c17.64 0 31.95-14.306 31.95-31.954v-35.896c0-17.6477-14.31-31.9534-31.95-31.9534h-144.05c-4.97 0-9-4.0294-9-9v-109.7958c0-17.3714-13.86-31.505-31.13-31.9424l-.82-.0108h-599.514zm732.778 250.5416c4.97 0 9 4.03 9 9v149.984c0 4.411-3.58 7.988-7.99 7.988h-371.53c-4.41 0-7.98-3.576-7.98-7.988v-149.984c0-4.97 4.03-9 9-9zm-132.44-226.5875c4.41 0 7.99 3.5768 7.99 7.9883v102.9257c0 4.9706-4.03 9-9 9h-598.504c-4.412-.0001-7.988-3.5765-7.988-7.9883v-103.9365c0-4.4117 3.576-7.9891 7.988-7.9892z" fill="#f3f3f3"/><path d="m0 0h1440v36h-1440z" fill="#f3f3f3"/><g stroke="#e9e9e9" stroke-width="1.5"><path d="m-1 1h1441"/><path d="m-214.277 17.3828h1654.277"/><path d="m-214.277 36.2187 1654.277.0001"/></g></svg>